<svg xmlns="http://www.w3.org/2000/svg" viewBox="0 0 69.34 66.4"><defs><style>.cls-1{fill:#df7100;}.cls-1,.cls-2,.cls-3,.cls-4,.cls-5,.cls-6{fill-rule:evenodd;}.cls-2{fill:#fff;}.cls-3{fill:none;stroke:#000;stroke-miterlimit:10;}.cls-4{opacity:0.36;}.cls-5{opacity:0.18;}.cls-6{opacity:0.49;}</style></defs><title>Recurso 6</title><g id="Capa_2" data-name="Capa 2"><g id="Capa_1-2" data-name="Capa 1"><path class="cls-1" d="M37.05,0C19.23,0,4.79,14.75,4.79,32.92S19.23,65.83,37.05,65.83,69.3,51.09,69.3,32.92,54.86,0,37.05,0Zm-.17,48.23c-6.91,0-12.51-6.86-12.51-15.33A17.64,17.64,0,0,1,27,23.55c.2-.3.4-.6.61-.89a11.63,11.63,0,0,1,9.3-5.07c6.91,0,12.51,6.86,12.51,15.33S43.79,48.25,36.88,48.25Z"/><path class="cls-2" d="M32.9,0A32.91,32.91,0,0,0,.42,27.65,32.44,32.44,0,0,0,0,32.9,32.91,32.91,0,1,0,32.9,0Zm8.27,45.81-.85.52a15.65,15.65,0,1,1,.85-.52Z"/><path class="cls-3" d="M47.36,38.61c5.28,6.52,9.38,11.17,10.18,10.63s-1.39-4.7-1.67-5.28c-1.86-3.92-3.95-7.73-6-11.53-4.66-8.5-9.58-16.85-14-25.49C33,1.29,33.22.65,33.37.56,34.29,0,44.79,13.91,59.13,31.88c1.19,1.49,4,5,4.7,4.6s-1.26-5.1-1.76-6.26a56.16,56.16,0,0,0-3-5.76,86.07,86.07,0,0,1-5.23-10.88,51.73,51.73,0,0,1-2.25-7.73"/><path class="cls-3" d="M30.16,17.82C21.19,6.55,18.65,4.18,18.22,4.49s2.3,5.75,4.19,9.27c1.25,2.34,2.38,4.27,3.23,5.67"/><path class="cls-3" d="M21.08,64.33c1.4-1.68-6.17-8.24-14.07-22.52C4.61,37.47-.06,28.37,1,27.65,3.48,26,33,66.7,34.25,65.81c.53-.39-4.13-7.49-13.34-23.05C11.29,26.5,5.22,16.18,6.28,15.41c.53-.38,3,1.45,12.23,12.22"/><path class="cls-3" d="M40.75,46.07c4.49,7.87,7.6,13.87,6.77,14.45s-5.88-5-12.08-12.49"/><path class="cls-4" d="M24.37,32.8c0-7.51,4.75-13.77,11-15.16-.31,0-.62-.05-.93-.05-7.56,0-13.69,6.86-13.69,15.33s6.13,15.33,13.69,15.33a11.79,11.79,0,0,0,1.79-.15C29.56,47.12,24.37,40.65,24.37,32.8Z"/><path class="cls-5" d="M24.8,29.57a14.35,14.35,0,0,1,2.78-6.91A16,16,0,0,1,30.51,20a20.55,20.55,0,0,1,4-2.36l-1.58,0a37.29,37.29,0,0,0-4.86.17,12.84,12.84,0,0,0-3.83.94,12.38,12.38,0,0,0-3.07,1.95,14.74,14.74,0,0,0-3.06,3.49A14.43,14.43,0,0,0,16.21,29a16.56,16.56,0,0,0,.51,9.37A16.84,16.84,0,0,0,26.85,48a18.23,18.23,0,0,0,5.1.94,16,16,0,0,0,3.88-.39,18.52,18.52,0,0,0,2.85-1c.31-.14.9-.39,1.61-.77s1.13-.62,1.57-.9a12.39,12.39,0,0,1-7.52,1.33,9.87,9.87,0,0,1-3.22-1.09,10.4,10.4,0,0,1-3.25-2.91,15.94,15.94,0,0,1-2.81-5.36A17.1,17.1,0,0,1,24.8,29.57Z"/><path class="cls-6" d="M42.57.5a34.46,34.46,0,0,1,11,10.75,32.28,32.28,0,0,1,5.43,18c-.17,11-6.3,18.43-8.3,20.78C50,50.89,40,62.31,24.37,62.48a33,33,0,0,1-7.49-.78,37.36,37.36,0,0,0,17.79,4.7A34.75,34.75,0,0,0,55,60.4,33.59,33.59,0,0,0,69.34,33.2c0-1.87-.14-15.39-11.08-25.07A33.24,33.24,0,0,0,42.57.5Z"/></g></g></svg>