<svg xmlns="http://www.w3.org/2000/svg" viewBox="0 0 970.32 142.71"><defs><style>.cls-1,.cls-2{fill:#ff8afa;opacity:0.94;}.cls-2{fill-rule:evenodd;}.cls-3{opacity:0.29;}.cls-4{opacity:0.19;}.cls-5{opacity:0.16;}.cls-6{opacity:0.32;}.cls-7{opacity:0.15;}.cls-8{opacity:0.35;}.cls-9{opacity:0.26;}.cls-10{opacity:0.46;}.cls-11{opacity:0.43;}.cls-12{opacity:0.21;}.cls-13{opacity:0.23;}.cls-14{opacity:0.42;}.cls-15{opacity:0.38;}.cls-16{opacity:0.45;}.cls-17{opacity:0.37;}.cls-18{opacity:0.41;}.cls-19{opacity:0.36;}.cls-20{opacity:0.55;}.cls-21{opacity:0.44;}.cls-22{opacity:0.31;}</style></defs><title>Recurso 7</title><g id="Capa_2" data-name="Capa 2"><g id="Capa_1-2" data-name="Capa 1"><path class="cls-1" d="M198.38,32.43a18.18,18.18,0,0,0-2.68.2c-1.85-9-10.46-15.78-20.81-15.78a23.74,23.74,0,0,0-4.34.41C169.21,7.55,158.9,0,146.37,0c-10.3,0-19.1,5.11-22.65,12.32a22.6,22.6,0,0,0-10.14.59A22.17,22.17,0,0,0,98.81,7.4C87.75,7.4,78.69,15.16,77.71,25a22.75,22.75,0,0,0-10-2.32c-9.6,0-17.7,5.85-20.3,13.86a14.51,14.51,0,0,0-19.93,4.86c-2.44-3.08-7.29-5.18-12.88-5.18C6.52,36.26,0,40.6,0,46s6.52,9.7,14.55,9.7c0,5.36,6.52,9.7,14.56,9.7a19.68,19.68,0,0,0,8.71-1.94,14.74,14.74,0,0,0,2,.15,14.55,14.55,0,0,0,12.85-7.72,22.13,22.13,0,0,0,15,5.68,22.69,22.69,0,0,0,9.86-2.23C82.3,64,98,67.67,109.31,68.09c3.35.13,4.52-.1,19.88-.18,7,0,12.22,0,16.34,0,32.8.13,36.31.9,40.78-2.62,2.56-2,5.42-5.43,12.07-9.63,8,0,14.56-5.2,14.56-11.62S206.42,32.43,198.38,32.43Z"/><path class="cls-2" d="M334.85,133.91c0-.49-1-1-2.72-1.4a3.25,3.25,0,0,0,.09-.77c0-2.21-2.13-4-4.77-4a5.28,5.28,0,0,0-3.3,1.12,6,6,0,0,0-6.84-4.46s0-.06,0-.09a7.37,7.37,0,0,0-8.39-7.37,10.1,10.1,0,0,0-9.83-9.51,9.44,9.44,0,0,0-5.63,1.87c-.17-7.32-5.81-13.19-12.75-13.19s-12.77,6-12.77,13.53c0,.31,0,.62.05.93a12.18,12.18,0,0,0-7.11-2.29c-6.47,0-11.8,5.1-12.64,11.72a7.91,7.91,0,0,0-5.4-2.15,8.48,8.48,0,0,0-8.24,8.28,4.5,4.5,0,0,0-3.17,4.15,4.09,4.09,0,0,0,.7,2.24c-1.71.44-2.65.9-2.65,1.39,0,1.15,5.28,2.2,13.92,3a1.53,1.53,0,0,0-.56,1.07c0,2.59,9.44,4.7,21.08,4.7A67.46,67.46,0,0,0,280,141a59.33,59.33,0,0,0,15,1.67c11.16,0,20.21-2.27,20.21-5.06a1,1,0,0,0-.05-.25C327.15,136.54,334.85,135.3,334.85,133.91Z"/><path class="cls-1" d="M966.06,58.31A4.75,4.75,0,0,0,963,54.63c-2.39-.94-5,0-5.81,2.07a2,2,0,0,0-.07.23l-1.17-.1c-.1-3.12-5-5.83-12.15-7.24a8.29,8.29,0,0,0,.37-2.44c0-5.19-4.73-9.39-10.58-9.39a11.35,11.35,0,0,0-7,2.36c-.14-9-7-16.33-15.45-16.33a15.12,15.12,0,0,0-12.44,6.77,17.23,17.23,0,0,0,.15-2.28c0-10.42-8.76-18.87-19.56-18.87a19.75,19.75,0,0,0-16.51,8.74,4.16,4.16,0,0,0-6,3.79,4.35,4.35,0,0,0,.31,1.57,7.09,7.09,0,0,0-10.89-3A20.61,20.61,0,0,0,829.66,12c-11.52,0-20.86,9.65-20.86,21.56a22.71,22.71,0,0,0,.56,5,22.8,22.8,0,0,0-4.26-.4c-10.8,0-19.56,7.47-19.56,16.67a14.46,14.46,0,0,0,.73,4.52A5.42,5.42,0,0,0,783.62,64a5.25,5.25,0,0,0,.17,1.32c-3.25.74-5.24,1.73-5.24,2.82,0,2.29,8.76,4.14,19.56,4.14a82.42,82.42,0,0,0,9.79-.55,48.67,48.67,0,0,0,7.43.55c6.95,0,13.13-1.38,17.14-3.54,6.53,2.32,20.32,4.37,36.36,5.14,12.56.6,23.82.29,31.34-.68a20.23,20.23,0,0,0,4.36.48,19.89,19.89,0,0,0,12.39-4.28,17.43,17.43,0,0,0,9,2.28c6.38,0,11.64-2.89,12.53-6.66.64-.06,1.28-.13,1.9-.21,2.24.14,4.64.21,7.13.21,12.62,0,22.86-1.9,22.86-4.25C970.32,59.86,968.74,59,966.06,58.31ZM858.28,25.1l-.47,0h-.26a7.1,7.1,0,0,0-.37-1.46A4.18,4.18,0,0,0,858.28,25.1Z"/><path class="cls-1" d="M766.84,104.26h-.21a10.11,10.11,0,0,0-20,2c0,.27,0,.54,0,.81l-1.53-.16a14.85,14.85,0,1,0-27.07-10,13.33,13.33,0,0,0-4.33-.72c-6.09,0-11.09,4-11.65,9.15a13.14,13.14,0,0,0-5.29-1.1c-6.47,0-11.71,4.52-11.71,10.11,0,4.68,3.7,8.61,8.7,9.76,1.24,4.43,5.85,7.73,11.37,7.73A11.87,11.87,0,0,0,716,125.64c3.33.4,6.92.68,10.68.81a12.4,12.4,0,0,0,9.36,4,12.2,12.2,0,0,0,9.86-4.68c1.73-.19,3.4-.41,5-.65a13,13,0,0,0,5.87,1.37,12.84,12.84,0,0,0,7.47-2.32,13.43,13.43,0,0,0,2.64.27c6.47,0,11.71-4.53,11.71-10.11S773.31,104.26,766.84,104.26Z"/><path class="cls-1" d="M593.49,57.92c-2-2.9-6-4.9-10.6-4.9a15.15,15.15,0,0,0-4.1.56A14.25,14.25,0,0,0,579,51.4a14.55,14.55,0,0,0-23.92-11.13,16.42,16.42,0,0,0,.52-4.06A16.79,16.79,0,0,0,526,25.26a20.36,20.36,0,0,0-5.44-.75h0a25.7,25.7,0,0,0-51.37,1.19q0,.68,0,1.35c-.46-.16-.92-.3-1.39-.43a8.06,8.06,0,0,0,1.36-4.49A8.17,8.17,0,0,0,453.4,19.2a25.71,25.71,0,0,0-47.17,20.35,18.57,18.57,0,0,0-27.17,14.72c-6,1.42-10.36,5.88-10.36,11.18a9.7,9.7,0,0,0,.62,3.39c-5.54,1.35-8.73,3-8.73,4.65,0,4.52,22.46,8.25,51.69,8.88a17.47,17.47,0,0,0,6.48,1.25A17.65,17.65,0,0,0,425,82.45c11.49-.12,22.1-.71,30.95-1.64a303.57,303.57,0,0,0,32.64,1.66,25.88,25.88,0,0,0,7.62,1.15A25.62,25.62,0,0,0,505,82.1c23.6-1.09,40.83-4.53,40.83-8.61a1.82,1.82,0,0,0-.44-1.1,18.57,18.57,0,0,0,5.29-2.85A65.67,65.67,0,0,0,564.74,71a67.57,67.57,0,0,0,12.44-1.1,15,15,0,0,0,5.71,1.1,14.21,14.21,0,0,0,8.16-2.45c.68,0,1.37.07,2.09.07,7.82,0,14.16-2.4,14.16-5.34S601.15,58,593.49,57.92Z"/><path class="cls-3" d="M181.28,42.82c-.31.6,4.87-11.14,13.87-10.19,0,0-.77-11.4-16.25-15.33C178.9,17.3,193.54,19,181.28,42.82Z"/><path class="cls-4" d="M167.4,68h0s5.43-1,8.78-4.14c2.68-2.49,1.39-3.91,4.76-8.34,2.38-3.12,2.92-2.29,5.11-5.36,2.42-3.41,2.54-5.55,4.93-6.75a7,7,0,0,1,4.17-.55c3.83.32,7.75,2.7,11.83,2s5.32-2,5.32-2,1.24,12.46-14.47,12.85a40.11,40.11,0,0,0-5.57,4.1c-3.57,3.13-4.26,4.87-7.49,6.46a18.56,18.56,0,0,1-4.85,1.57,36.68,36.68,0,0,1-5.28.31c-3.78.08-3.18-.19-4,0A7.24,7.24,0,0,1,167.4,68Z"/><path class="cls-4" d="M17.44,61.92s11.33.27,17.29-5.5,11.74-3.9,12.25-3.9a22.08,22.08,0,0,0,12.09-4.76C64,43.5,76.26,40.61,76.26,40.61s-7.15,5.83,0,10.66,14.64,0,14.64,0S102.81,52,112,56.42s14.29,0,14.29,0c-4.07,4.91-10.9,11.78-17.54,11.67-.8,0-2.71-.14-4.33-.29a84.47,84.47,0,0,1-10.64-1.66L89.3,65a37.13,37.13,0,0,1-4.15-1.2l-2.59-1.11a24.38,24.38,0,0,1-3.19-1.45A11.15,11.15,0,0,1,77,59.3,24.44,24.44,0,0,1,72.18,61a26,26,0,0,1-4.81.59,15.16,15.16,0,0,1-3.19,0,20,20,0,0,1-3.41-.85c-.39-.12-1.05-.35-2.35-.82-2.36-.83-2.63-1-3-1.24A8.62,8.62,0,0,0,54,57.38a4.46,4.46,0,0,1-1.18-.71c-.42-.42-.58-.86-.71-.82s.05.4-.11.82-.5.49-1,.95a4.64,4.64,0,0,0-.74.93,14.17,14.17,0,0,1-3.39,3.18,12.81,12.81,0,0,1-6.11,1.72c-1.13.08-1.21,0-2.36.09A17,17,0,0,0,34,64.66a19.67,19.67,0,0,1-9.5.53A16.83,16.83,0,0,1,17.44,61.92Z"/><path class="cls-5" d="M123.17,12.32a22.17,22.17,0,0,0-2.48,12.46,8.51,8.51,0,0,0-7.66,0,21.37,21.37,0,0,1,10.14-12.46Z"/><path class="cls-6" d="M229.9,134.45a64.79,64.79,0,0,0,14.52-2.26c2.58-.71,4.39-1.71,7.16-1.49,3.13.25,5.16,2,10.37,2.59,0,0,4.94-8.42,15-6s19.58-2.73,19.58-2.73.93-8.71,11.86-7.59a8.39,8.39,0,0,1,5.67,1.2,8.69,8.69,0,0,1,3.74,6.22,5.92,5.92,0,0,1,6.37,4.5,5.29,5.29,0,0,1,6.6,0,4.92,4.92,0,0,1,1.38,3.66l3.52,1.47a40.86,40.86,0,0,1-5,1.53,76.71,76.71,0,0,1-9.36,1.36l-6.09.73a6.12,6.12,0,0,1-1.23,1.74,6.33,6.33,0,0,1-1.94,1.27,10.25,10.25,0,0,1-3.87.83c-3.65.05-4.82,1-10.61,1.22A74.83,74.83,0,0,1,279.46,141a73.23,73.23,0,0,1-11.61,1.58,80.34,80.34,0,0,1-10-.1c-2-.11-3.84-.37-7.47-.88A23.72,23.72,0,0,1,245,140c-1.22-.52-2.13-1-2.2-1.79a1.72,1.72,0,0,1,.62-1.28,56.4,56.4,0,0,1-6.69-.78c-1.95-.35-3.58-.75-4.73-1.06C231.15,134.83,230.44,134.62,229.9,134.45Z"/><path class="cls-7" d="M292.91,109.3s-3.72.36-8.32,7.54c0,0,7.56-15.07-1.5-20.37C283.09,96.47,292.05,98.14,292.91,109.3Z"/><path class="cls-6" d="M268,110.57s-4.94,3.92-3.54,7.75c0,0-1-10.33-6.65-9.64C257.81,108.68,262,107.41,268,110.57Z"/><path class="cls-8" d="M300.19,107.49s3.21,1-.62,7.13-5.49,7.91-5.11,7.66,4.55-8.38,14.47-5.34C308.93,116.94,308.85,109.43,300.19,107.49Z"/><path class="cls-9" d="M248.25,120a4,4,0,0,0-2,4.7c.76,3.45-1.16-6.67-6.74-6.08C239.47,118.62,243.21,116.18,248.25,120Z"/><path class="cls-10" d="M234.61,126.13A1.76,1.76,0,0,0,235.8,128c1.41.51-2.86-.89-3.66,0C232.14,128,233.23,126,234.61,126.13Z"/><path class="cls-11" d="M386.37,80.84c1,.11,10,1.63,16.35-5.34S454,71.09,454.8,71.34s12.07,7.4,29.14-4.08c0,0,12.22-16.86,29.84-4.35,0,0-2-21.19,20.68-16.34,0,0,15.11-17.81,8.45-26.65,0,0,14.61,3.58,12.14,20.35,0,0,21.86-12.63,23.74,13.31,0,0,10.42-2.44,14.7,4.34,0,0,31.51,4.36-.35,10.68,0,0-6.17,2.63-16,1.28s-1.1-.33-1.1-.33-28.29,1.84-30.74,2.84c0,0,9.86,6.7-44.81,10.87,0,0-20.45.34-31.17-.94s-46-.47-48.51,1.3c0,0-15.32-1.05-16.6-1.3S386.37,80.84,386.37,80.84Z"/><path class="cls-12" d="M467.83,26.62s-3.32-2.19-7.24,2.16c0,0,6.7-8.63,1.56-14.73C462.15,14.05,472.36,15.35,467.83,26.62Z"/><path class="cls-13" d="M441.36,33c.51-.76,4.76-5.87,8.51-5.7,0,0-1.8-6.07,3.53-8.14A26,26,0,0,0,438.49,6a25.45,25.45,0,0,0-6.66-1.31A13.85,13.85,0,0,1,434,7.87c1,1.86,1.7,4.21.68,6.18,0,0,3.91-.12,4.93,4.8,0,0,1.83-.19,3,4.24S441.36,33,441.36,33Z"/><path class="cls-14" d="M520.59,24.51s-6.64-.91-12.43,7.6c0,0-2-2.81-6.38,1.7,0,0,5.62-4.94,1.53-10.81,0,0,4.94-2.47,4.26-6.38,0,0,3.74-2.3.51-7.32,0,0-.91-6.52-11.82-9.26a23.28,23.28,0,0,1,10.2,2.53,24.71,24.71,0,0,1,6.19,4.65A25.15,25.15,0,0,1,519,16.28,23.27,23.27,0,0,1,520.59,24.51Z"/><path class="cls-15" d="M406.23,39.55s-3.17,3.62-.62,6.85c0,0-5.36.51-5.36,4.09,0,0-2.3-3.66-5.87-2.13,0,0,4.59-2.83,4.59-6,0-.51,3.86-2.06.44-4.9C399.41,37.5,403.61,37.8,406.23,39.55Z"/><path class="cls-15" d="M728.69,128.38a8,8,0,0,0,5.6-1.12s2.56,1.1,3.83-.6c0,0,4-1.79,3.75-5.19,0,0,3.83.93,6-2,0,0,3.41,2.72,6,1,0,0,4.17,1.7,6.72-1s4.17-4.69,4.17-4.69,0,1.11,2.21,0c0,0,4.17-.93,4.94-4.08s7.63-2.45,6.41,4.69c0,0-.47,9.72-14.29,8.86,0,0-4.53,4-13.34,1a11,11,0,0,1-5,.65S739.26,134.1,728.69,128.38Z"/><path class="cls-16" d="M766.63,104.27a3.37,3.37,0,0,0-2.64,1.45s-2-.42-2.38,1.37a5.61,5.61,0,0,0,0,2.72,4.37,4.37,0,0,0-2.47-2,2.62,2.62,0,0,0,.77-2.71s2.3-1,2.38-2.47c0,0,.91-.51.6-2.55a4,4,0,0,0-1.55-2.79S766.63,100.42,766.63,104.27Z"/><path class="cls-8" d="M746.66,107.13s-.62.47.65,1.75c0,0-1.95-.09-1.87.93a12,12,0,0,1-1.36-.93s.73-1.43,1-1.91.14.29,1.16.2S746.66,107.13,746.66,107.13Z"/><path class="cls-17" d="M737.32,84.52c-.19-.07,4.27,2.46,2.55,5.33,0,0,1.85,1.79-.07,3.38a7.57,7.57,0,0,1-4.47,7.6,2,2,0,0,1,2.37,1.85s3.7-1.21,5,1.21a2.41,2.41,0,0,1,2-.17,2.15,2.15,0,0,1,.72.51,5.19,5.19,0,0,0,.68-.8c.46-.67.6-1.18.68-1.15a3.34,3.34,0,0,1-.17,1.53,9.29,9.29,0,0,1-.75,2,14.84,14.84,0,0,0,1.83-8,15,15,0,0,0-10.35-13.28Z"/><path class="cls-18" d="M718.06,96.93a7.12,7.12,0,0,0,1.08,5.56c1.88,2.55,0,.42,0,.42s-1.1-1.1-1.7.26a2.38,2.38,0,0,0-2.21-1.62s.42-2-.43-2.81c0,0,.48-2.3-3.59-2.3A14.1,14.1,0,0,1,718.06,96.93Z"/><path class="cls-14" d="M702.08,105.36s-.56.17,0,3c0,0-.72,0-1.23,1.5,0,0-.69-.43-1.71.68,0,0-1-2.33-3-2.57,0,0-.58-2.16-4.85-.66,0,0-3.43-.41-5.71,4.13,0,0,1.94-6.15,9.79-7.06s.35,0,.35,0S700.42,104.14,702.08,105.36Z"/><path class="cls-17" d="M693.78,124.13s7.24,3.64,12.17,2.7c0,0,4.85-.3,6.9-2.7a5.88,5.88,0,0,0,5.95,0s5.56.21,6.39-2.77a2.57,2.57,0,0,0,.08-.4s4.45,1,1.37,5.49c0,0-8.85-.46-10.68-.81,0,0-2.09,6.24-12,6.22C704,131.86,695.48,130.7,693.78,124.13Z"/><path class="cls-11" d="M778.55,68.16a37.28,37.28,0,0,0,9.74.25,39.22,39.22,0,0,0,20.22-8.56s4.76,7.25,14.8,4.39c0,0,7.32,4.8,11.75,1.23,0,0,17.36,6.13,24.85-7.32a3.68,3.68,0,0,0,2.38,1.32c1.1.06,1.48-.65,2.43-.64,1.46,0,1.89,1.67,3.62,3a8.87,8.87,0,0,0,6.09,1.56,9.75,9.75,0,0,0,5.93-3.47c1.24-1.62,1.58-3.35,2.61-3.39.58,0,1.06.5,1.38.93,1.92,2.82,3.38,3.34,4.37,3.28,1.18-.06,1.8-1,3.59-.85,1,0,1.37.34,2.15.09s.84-.84,1.78-1.32a3.92,3.92,0,0,1,3.5,0c.55.32.56.59,1.11.78a3,3,0,0,0,2.17-.26c1.5-.66,3.28-3.35,4.55-7.19.51.72,1.16,1.41,1.83,1.32s.79-.81,1.4-.89c.81-.11,1.31,1,2.17,1.78,1.79,1.56,5.14,1.44,7.41.13.56-.32,2.55-1.47,2.93-3.45.31-1.57-.65-2.47,0-3.82.45-.94,1.15-1,1.92-1.79s1.55-2.23,1.35-5.18a11.94,11.94,0,0,1,4-2,10.5,10.5,0,0,1,9.19,1.45s5.9,3.89,4.06,10.07c0,0,11.15,1.67,12.15,7.24l1.17.1s4.29-6.28,8.95,1.38L970.32,60l-1.19,2.12S958.05,66,938.43,65c0,0-3.81,10.88-21.51,4.38,0,0-3.89,5.6-16.75,3.8-8.65.57-15.91.71-21.28.72-22.95,0-34.58-2.33-37.59-3-3.76-.81-6.82-1.63-8.83-2.21l-3.54,1.64s-11.53,3-18.62,1.65c0,0-4.33,0-6.56.08-4.37.07-8,0-10.69-.08,0,0-2.08-.07-6.72-.58l-4.47-1a4.73,4.73,0,0,1-2.56-1.21A3.79,3.79,0,0,1,778.55,68.16Z"/><path class="cls-19" d="M909.91,24.36s0,0,0,0c-.15.38,8.23,4,4.76,10.18a4.79,4.79,0,0,1,3,2,4.52,4.52,0,0,1,.72,2.47A5.78,5.78,0,0,1,917.7,41,6.69,6.69,0,0,1,913.79,44a3.76,3.76,0,0,1,2.63-.73,3.66,3.66,0,0,1,1.79.73A1.62,1.62,0,0,1,920,42.49,1.6,1.6,0,0,1,921.27,44a2.92,2.92,0,0,1,1.66-2,2.82,2.82,0,0,1,2.3.13,9.48,9.48,0,0,0,1.07-4.89,9.32,9.32,0,0,0-1.47-4.49,15,15,0,0,0-3.3-4.92,16.12,16.12,0,0,0-8-3.95A7.63,7.63,0,0,0,909.91,24.36Z"/><path class="cls-20" d="M898.69,30.56a4.24,4.24,0,0,0-3.46,3.36s-2.81-2.15-5.11-.62a7.63,7.63,0,0,0,0-3.45c-.13-.64,2.68-2.62.51-6,0,0,1.53-5.84-3.83-8.78a8.43,8.43,0,0,0-4.42-5.39S899.35,12.25,898.69,30.56Z"/><path class="cls-18" d="M862.77,18.15c1,.39-1.69,1.81,0,5.48,0,0-2-5.34-5-4.3C857.73,19.33,858.91,16.66,862.77,18.15Z"/><path class="cls-21" d="M850.87,19A4.19,4.19,0,0,1,852,24.36a2.51,2.51,0,0,1-.27,3.45,2.38,2.38,0,0,1,3.34,0s-1.28-2,1-1.92l2.29.13A8.42,8.42,0,0,0,850.87,19Z"/><path class="cls-11" d="M846.23,20.47s-2.19.7-4.24,5.17c0,0-4.85-.26-6.51,4.34,0,0-6.25-2.68-8.68,4.47,0,0,1.92-2.43-.89-5.75,0,0,7.91-3.83,6.51-8.81s-8-7.19-8-7.19A21.19,21.19,0,0,1,846.23,20.47Z"/><path class="cls-18" d="M809.36,38.56s-1.2,1.18-1.26,5.53c0,0-2.74-1.35-4.28,2.23,0,0-.19-1.28-1.53-.58s-1.78,2.88-1.78,2.88-1.15-2.24-3.07-1c0,0,3.13-2.56,2-4.92s-6.71-.79-6.59-.87A21.46,21.46,0,0,1,809.36,38.56Z"/><path class="cls-22" d="M786.27,59.35s-.57,1.65,2.24,2.54c0,0-4.36.07-4.87,2.56C783.64,64.45,783.2,60.58,786.27,59.35Z"/><path class="cls-13" d="M98.73,28c.5.18,1.81-5.4,6.13-9.87A21.65,21.65,0,0,1,113,12.91,19.79,19.79,0,0,0,107.18,9,21.17,21.17,0,0,0,99.07,7.4a25.87,25.87,0,0,0-4.39.28,10.87,10.87,0,0,1,3.88,4c.41.75,1.33,2.67,1.19,7.49C99.6,24.47,98.33,27.87,98.73,28Z"/><path class="cls-9" d="M122.22,68s10.21-1.31,12.93-7.78,6.47-8.85,14.3-6.81,17.7-8.51,17.7-8.51,1.71,4.83-6.8,14-11.92,4.42-11.92,4.42.86,5.08,16.34,4.72S122.22,68,122.22,68Z"/><path class="cls-13" d="M143.92,28s22-12.36,4.6-28c1.23.18,10.64,1.64,16,6.88a21.76,21.76,0,0,1,3.69,4.9A18.08,18.08,0,0,1,170,17.26C168.11,17.25,166,17.38,143.92,28Z"/></g></g></svg>