<svg xmlns="http://www.w3.org/2000/svg" viewBox="0 0 1760 171.44"><defs><style>.cls-1{fill:none;}.cls-2{fill:#ffcda2;}.cls-3{fill:#ffb675;}.cls-4{fill:#dc9154;}.cls-5{opacity:0.28;}</style></defs><title>Recurso 8</title><g id="Capa_2" data-name="Capa 2"><g id="Capa_1-2" data-name="Capa 1"><polygon class="cls-1" points="5.95 133.06 0 135.34 0 137.58 7.42 133.81 5.95 133.06"/><polygon class="cls-2" points="17.88 128.49 5.95 133.06 7.42 133.81 17.88 128.49"/><polygon class="cls-3" points="285.35 1.5 278.6 6.36 286.41 2.38 285.35 1.5"/><polygon class="cls-2" points="322.63 32.6 314.84 26.1 297.9 34.72 263.49 17.22 254.97 23.34 297.9 45.18 322.63 32.6"/><polygon class="cls-4" points="286.41 2.38 278.6 6.36 268.63 13.52 292.47 7.44 286.41 2.38"/><polygon class="cls-3" points="314.84 26.1 292.47 7.44 268.63 13.52 263.49 17.22 297.9 34.72 314.84 26.1"/><polygon class="cls-3" points="297.9 45.18 254.97 23.34 246.45 29.46 277.35 45.18 297.9 45.18"/><polygon class="cls-2" points="297.9 45.18 277.35 45.18 239.81 64.27 215.34 51.83 206.83 57.95 239.81 74.72 297.9 45.18"/><polygon class="cls-4" points="277.35 45.18 246.45 29.46 236.87 36.35 239.91 35.58 277.35 45.18"/><polygon class="cls-3" points="277.35 45.18 239.91 35.58 236.87 36.35 215.34 51.83 239.81 64.27 277.35 45.18"/><polygon class="cls-3" points="239.81 74.72 206.83 57.95 198.32 64.07 219.25 74.72 239.81 74.72"/><polygon class="cls-2" points="239.81 74.72 219.25 74.72 181.71 93.81 167.21 86.43 158.69 92.56 181.71 104.27 239.81 74.72"/><polygon class="cls-4" points="198.32 64.07 192.91 67.96 219.25 74.72 198.32 64.07"/><polygon class="cls-3" points="219.25 74.72 192.91 67.96 167.21 86.43 181.71 93.81 219.25 74.72"/><polygon class="cls-3" points="128.74 86.03 126.77 86.78 136.86 91.91 128.74 86.03"/><polygon class="cls-3" points="181.71 104.27 158.69 92.56 150.17 98.68 161.16 104.27 181.71 104.27"/><polygon class="cls-3" points="101.18 96.58 81.12 104.27 86.07 104.27 101.18 96.58"/><polygon class="cls-2" points="181.71 104.27 161.16 104.27 123.61 123.36 86.07 104.27 81.12 104.27 72.22 107.67 123.61 133.81 181.71 104.27"/><polygon class="cls-4" points="123.72 94.67 161.16 104.27 150.17 98.68 148.18 100.12 136.86 91.91 126.77 86.78 101.18 96.58 86.07 104.27 123.72 94.67"/><polygon class="cls-3" points="86.07 104.27 123.61 123.36 161.16 104.27 123.72 94.67 86.07 104.27"/><polygon class="cls-3" points="27.98 133.81 65.52 114.72 103.06 133.81 123.61 133.81 72.22 107.67 17.88 128.49 7.42 133.81 27.98 133.81"/><polygon class="cls-2" points="103.06 133.81 65.52 152.91 27.98 133.81 7.42 133.81 65.52 163.36 123.61 133.81 103.06 133.81"/><polygon class="cls-4" points="103.06 133.81 65.52 114.72 27.98 133.81 65.63 124.21 103.06 133.81"/><polygon class="cls-3" points="103.06 133.81 65.63 124.21 27.98 133.81 65.52 152.91 103.06 133.81"/><polygon class="cls-3" points="44.97 163.36 65.52 163.36 7.42 133.81 0 137.58 0 148.04 7.42 144.27 44.97 163.36"/><polygon class="cls-2" points="44.97 163.36 29.07 171.44 49.62 171.44 65.52 163.36 44.97 163.36"/><polygon class="cls-4" points="44.97 163.36 7.42 144.27 0 148.04 0 155.68 7.53 153.76 44.97 163.36"/><polygon class="cls-3" points="7.53 153.76 0 155.68 0 171.44 29.07 171.44 44.97 163.36 7.53 153.76"/><polygon class="cls-3" points="318.46 45.18 330.41 39.1 322.63 32.6 297.9 45.18 318.46 45.18"/><polygon class="cls-2" points="318.46 45.18 297.9 45.18 356 74.72 398.15 53.28 388.54 47.72 356 64.27 318.46 45.18"/><polygon class="cls-4" points="371.09 37.6 367.9 38.6 376.72 40.86 371.09 37.6"/><polygon class="cls-4" points="333.19 41.42 330.41 39.1 318.46 45.18 333.19 41.42"/><polygon class="cls-3" points="356 64.27 388.54 47.72 376.72 40.86 367.9 38.6 340.22 47.28 333.19 41.42 318.46 45.18 356 64.27"/><polygon class="cls-3" points="297.9 55.63 335.44 74.72 356 74.72 297.9 45.18 239.81 74.72 260.36 74.72 297.9 55.63"/><polygon class="cls-2" points="356 74.72 335.44 74.72 297.9 93.81 260.36 74.72 239.81 74.72 297.9 104.27 356 74.72"/><polygon class="cls-4" points="260.36 74.72 298.01 65.12 335.44 74.72 297.9 55.63 260.36 74.72"/><polygon class="cls-3" points="260.36 74.72 297.9 93.81 335.44 74.72 298.01 65.12 260.36 74.72"/><polygon class="cls-3" points="239.81 85.18 277.35 104.27 297.9 104.27 239.81 74.72 181.71 104.27 202.26 104.27 239.81 85.18"/><polygon class="cls-2" points="297.9 104.27 277.35 104.27 239.81 123.36 202.26 104.27 181.71 104.27 239.81 133.81 297.9 104.27"/><polygon class="cls-4" points="202.26 104.27 239.91 94.67 277.35 104.27 239.81 85.18 202.26 104.27"/><polygon class="cls-3" points="202.26 104.27 239.81 123.36 277.35 104.27 239.91 94.67 202.26 104.27"/><polygon class="cls-3" points="181.71 114.72 219.25 133.81 239.81 133.81 181.71 104.27 123.61 133.81 144.17 133.81 181.71 114.72"/><polygon class="cls-2" points="219.25 133.81 181.71 152.91 144.17 133.81 123.61 133.81 181.71 163.36 239.81 133.81 219.25 133.81"/><polygon class="cls-4" points="144.17 133.81 181.82 124.21 219.25 133.81 181.71 114.72 144.17 133.81"/><polygon class="cls-3" points="144.17 133.81 181.71 152.91 219.25 133.81 181.82 124.21 144.17 133.81"/><polygon class="cls-3" points="65.52 163.36 86.07 163.36 123.61 144.27 161.16 163.36 181.71 163.36 123.61 133.81 65.52 163.36"/><polygon class="cls-2" points="161.16 163.36 145.26 171.44 165.81 171.44 181.71 163.36 161.16 163.36"/><polygon class="cls-2" points="65.52 163.36 81.42 171.44 101.97 171.44 86.07 163.36 65.52 163.36"/><polygon class="cls-4" points="86.07 163.36 123.72 153.76 161.16 163.36 123.61 144.27 86.07 163.36"/><polygon class="cls-3" points="123.72 153.76 86.07 163.36 101.97 171.44 145.26 171.44 161.16 163.36 123.72 153.76"/><polygon class="cls-3" points="49.62 171.44 81.42 171.44 65.52 163.36 49.62 171.44"/><polygon class="cls-3" points="376.55 74.72 407.75 58.85 398.15 53.28 356 74.72 376.55 74.72"/><polygon class="cls-2" points="376.55 74.72 356 74.72 414.09 104.27 452.44 84.76 442.83 79.19 414.09 93.81 376.55 74.72"/><polygon class="cls-4" points="414.2 65.12 422 67.12 407.75 58.85 376.55 74.72 414.2 65.12"/><polygon class="cls-3" points="376.55 74.72 414.09 93.81 442.83 79.19 422 67.12 414.2 65.12 376.55 74.72"/><polygon class="cls-3" points="318.46 104.27 356 85.18 393.54 104.27 414.09 104.27 356 74.72 297.9 104.27 318.46 104.27"/><polygon class="cls-2" points="356 123.36 318.46 104.27 297.9 104.27 356 133.81 414.09 104.27 393.54 104.27 356 123.36"/><polygon class="cls-4" points="393.54 104.27 356 85.18 318.46 104.27 356.11 94.67 393.54 104.27"/><polygon class="cls-3" points="393.54 104.27 356.11 94.67 318.46 104.27 356 123.36 393.54 104.27"/><polygon class="cls-3" points="239.81 133.81 260.36 133.81 297.9 114.72 335.44 133.81 356 133.81 297.9 104.27 239.81 133.81"/><polygon class="cls-2" points="335.44 133.81 297.9 152.91 260.36 133.81 239.81 133.81 297.9 163.36 356 133.81 335.44 133.81"/><polygon class="cls-4" points="260.36 133.81 298.01 124.21 335.44 133.81 297.9 114.72 260.36 133.81"/><polygon class="cls-3" points="260.36 133.81 297.9 152.91 335.44 133.81 298.01 124.21 260.36 133.81"/><polygon class="cls-3" points="181.71 163.36 202.26 163.36 239.81 144.27 277.35 163.36 297.9 163.36 239.81 133.81 181.71 163.36"/><polygon class="cls-2" points="181.71 163.36 197.61 171.44 218.16 171.44 202.26 163.36 181.71 163.36"/><polygon class="cls-2" points="277.35 163.36 261.45 171.44 282 171.44 297.9 163.36 277.35 163.36"/><polygon class="cls-4" points="202.26 163.36 239.91 153.76 277.35 163.36 239.81 144.27 202.26 163.36"/><polygon class="cls-3" points="239.91 153.76 202.26 163.36 218.16 171.44 261.45 171.44 277.35 163.36 239.91 153.76"/><polygon class="cls-3" points="165.81 171.44 197.61 171.44 181.71 163.36 165.81 171.44"/><polygon class="cls-2" points="629.42 53.85 621.65 47.35 588.38 64.27 571.31 55.59 560.57 60.58 588.38 74.72 629.42 53.85"/><polygon class="cls-4" points="610 37.6 605.16 39.85 616.02 42.64 610 37.6"/><polygon class="cls-3" points="621.65 47.35 616.02 42.64 605.16 39.85 571.31 55.59 588.38 64.27 621.65 47.35"/><polygon class="cls-3" points="588.38 74.72 560.57 60.58 549.83 65.57 567.83 74.72 588.38 74.72"/><polygon class="cls-2" points="588.38 74.72 567.83 74.72 530.29 93.81 510.61 83.8 499.87 88.79 530.29 104.27 588.38 74.72"/><polygon class="cls-4" points="549.83 65.57 543.55 68.49 567.83 74.72 549.83 65.57"/><polygon class="cls-3" points="567.83 74.72 543.55 68.49 510.61 83.8 530.29 93.81 567.83 74.72"/><polygon class="cls-3" points="530.29 104.27 499.87 88.79 489.12 93.79 509.73 104.27 530.29 104.27"/><polygon class="cls-3" points="434.65 104.27 462.05 90.33 452.44 84.76 414.09 104.27 434.65 104.27"/><polygon class="cls-2" points="530.29 104.27 509.73 104.27 472.19 123.36 434.65 104.27 414.09 104.27 472.19 133.81 530.29 104.27"/><polygon class="cls-4" points="470.37 95.16 462.05 90.33 434.65 104.27 470.37 95.16"/><polygon class="cls-4" points="489.12 93.79 481.92 97.14 509.73 104.27 489.12 93.79"/><polygon class="cls-3" points="472.19 123.36 509.73 104.27 481.92 97.14 477.4 99.24 470.37 95.16 434.65 104.27 472.19 123.36"/><polygon class="cls-3" points="376.55 133.81 414.09 114.72 451.63 133.81 472.19 133.81 414.09 104.27 356 133.81 376.55 133.81"/><polygon class="cls-2" points="451.63 133.81 414.09 152.91 376.55 133.81 356 133.81 414.09 163.36 472.19 133.81 451.63 133.81"/><polygon class="cls-4" points="376.55 133.81 414.2 124.21 451.63 133.81 414.09 114.72 376.55 133.81"/><polygon class="cls-3" points="376.55 133.81 414.09 152.91 451.63 133.81 414.2 124.21 376.55 133.81"/><polygon class="cls-3" points="297.9 163.36 318.46 163.36 356 144.27 393.54 163.36 414.09 163.36 356 133.81 297.9 163.36"/><polygon class="cls-2" points="297.9 163.36 313.8 171.44 334.35 171.44 318.46 163.36 297.9 163.36"/><polygon class="cls-2" points="393.54 163.36 377.64 171.44 398.2 171.44 414.09 163.36 393.54 163.36"/><polygon class="cls-4" points="318.46 163.36 356.11 153.76 393.54 163.36 356 144.27 318.46 163.36"/><polygon class="cls-3" points="356.11 153.76 318.46 163.36 334.35 171.44 377.64 171.44 393.54 163.36 356.11 153.76"/><polygon class="cls-3" points="282 171.44 313.8 171.44 297.9 163.36 282 171.44"/><polygon class="cls-3" points="608.94 74.72 646.48 55.63 660.72 62.87 647.73 52.57 636.3 59.61 629.42 53.85 588.38 74.72 608.94 74.72"/><polygon class="cls-2" points="608.94 74.72 588.38 74.72 646.48 104.27 690.77 81.74 686.6 83.39 678.93 77.31 646.48 93.81 608.94 74.72"/><polygon class="cls-4" points="608.94 74.72 646.59 65.12 671.67 71.55 660.72 62.87 646.48 55.63 608.94 74.72"/><polygon class="cls-3" points="608.94 74.72 646.48 93.81 678.93 77.31 671.67 71.55 646.59 65.12 608.94 74.72"/><polygon class="cls-3" points="588.38 85.18 625.92 104.27 646.48 104.27 588.38 74.72 530.29 104.27 550.84 104.27 588.38 85.18"/><polygon class="cls-2" points="646.48 104.27 625.92 104.27 588.38 123.36 550.84 104.27 530.29 104.27 588.38 133.81 646.48 104.27"/><polygon class="cls-4" points="550.84 104.27 588.49 94.67 625.92 104.27 588.38 85.18 550.84 104.27"/><polygon class="cls-3" points="550.84 104.27 588.38 123.36 625.92 104.27 588.49 94.67 550.84 104.27"/><polygon class="cls-3" points="492.75 133.81 530.29 114.72 567.83 133.81 588.38 133.81 530.29 104.27 472.19 133.81 492.75 133.81"/><polygon class="cls-2" points="567.83 133.81 530.29 152.91 492.75 133.81 472.19 133.81 530.29 163.36 588.38 133.81 567.83 133.81"/><polygon class="cls-4" points="492.75 133.81 530.39 124.21 567.83 133.81 530.29 114.72 492.75 133.81"/><polygon class="cls-3" points="492.75 133.81 530.29 152.91 567.83 133.81 530.39 124.21 492.75 133.81"/><polygon class="cls-3" points="414.09 163.36 434.65 163.36 472.19 144.27 509.73 163.36 530.29 163.36 472.19 133.81 414.09 163.36"/><polygon class="cls-2" points="509.73 163.36 493.83 171.44 514.39 171.44 530.29 163.36 509.73 163.36"/><polygon class="cls-2" points="414.09 163.36 429.99 171.44 450.55 171.44 434.65 163.36 414.09 163.36"/><polygon class="cls-4" points="434.65 163.36 472.3 153.76 509.73 163.36 472.19 144.27 434.65 163.36"/><polygon class="cls-3" points="472.3 153.76 434.65 163.36 450.55 171.44 493.83 171.44 509.73 163.36 472.3 153.76"/><polygon class="cls-3" points="398.2 171.44 429.99 171.44 414.09 163.36 398.2 171.44"/><polygon class="cls-2" points="706.43 75.56 706.31 75.6 707.29 76.1 706.43 75.56"/><polygon class="cls-3" points="667.03 104.27 704.57 85.18 742.12 104.27 752.31 104.27 707.29 76.1 706.31 75.6 690.77 81.74 646.48 104.27 667.03 104.27"/><polygon class="cls-2" points="704.57 123.36 667.03 104.27 646.48 104.27 704.57 133.81 756.96 107.17 752.31 104.27 742.12 104.27 704.57 123.36"/><polygon class="cls-4" points="742.12 104.27 704.57 85.18 667.03 104.27 704.68 94.67 742.12 104.27"/><polygon class="cls-3" points="742.12 104.27 704.68 94.67 667.03 104.27 704.57 123.36 742.12 104.27"/><polygon class="cls-3" points="608.94 133.81 646.48 114.72 684.02 133.81 704.57 133.81 646.48 104.27 588.38 133.81 608.94 133.81"/><polygon class="cls-2" points="684.02 133.81 646.48 152.91 608.94 133.81 588.38 133.81 646.48 163.36 704.57 133.81 684.02 133.81"/><polygon class="cls-4" points="608.94 133.81 646.59 124.21 684.02 133.81 646.48 114.72 608.94 133.81"/><polygon class="cls-3" points="608.94 133.81 646.48 152.91 684.02 133.81 646.59 124.21 608.94 133.81"/><polygon class="cls-3" points="530.29 163.36 550.84 163.36 588.38 144.27 625.92 163.36 646.48 163.36 588.38 133.81 530.29 163.36"/><polygon class="cls-2" points="625.92 163.36 610.03 171.44 630.58 171.44 646.48 163.36 625.92 163.36"/><polygon class="cls-2" points="530.29 163.36 546.19 171.44 566.74 171.44 550.84 163.36 530.29 163.36"/><polygon class="cls-4" points="550.84 163.36 588.49 153.76 625.92 163.36 588.38 144.27 550.84 163.36"/><polygon class="cls-3" points="588.49 153.76 550.84 163.36 566.74 171.44 610.03 171.44 625.92 163.36 588.49 153.76"/><polygon class="cls-3" points="514.39 171.44 546.19 171.44 530.29 163.36 514.39 171.44"/><polygon class="cls-2" points="1013.47 35.81 1003.51 30.42 995.05 34.72 963.68 18.76 955.5 25.06 995.05 45.18 1013.47 35.81"/><polygon class="cls-3" points="1003.51 30.42 971.24 12.94 963.68 18.76 995.05 34.72 1003.51 30.42"/><polygon class="cls-3" points="995.05 45.18 955.5 25.06 947.33 31.36 974.5 45.18 995.05 45.18"/><polygon class="cls-3" points="928.46 30.41 922.08 27.03 894.08 45.18 899.42 45.18 928.46 30.41"/><polygon class="cls-2" points="995.05 45.18 974.5 45.18 936.96 64.27 899.42 45.18 894.08 45.18 887.39 49.51 936.96 74.72 995.05 45.18"/><polygon class="cls-4" points="937.06 35.58 939.3 36.15 928.46 30.41 899.42 45.18 937.06 35.58"/><polygon class="cls-4" points="947.33 31.36 940.66 36.5 974.5 45.18 947.33 31.36"/><polygon class="cls-3" points="899.42 45.18 936.96 64.27 974.5 45.18 940.66 36.5 940.37 36.72 939.3 36.15 937.06 35.58 899.42 45.18"/><polygon class="cls-3" points="916.4 74.72 936.96 74.72 887.39 49.51 874.64 57.77 878.86 55.63 916.4 74.72"/><polygon class="cls-2" points="936.96 74.72 916.4 74.72 878.86 93.81 845.34 76.76 836.3 82.62 878.86 104.27 936.96 74.72"/><polygon class="cls-4" points="916.4 74.72 878.86 55.63 874.64 57.77 853.15 71.7 878.97 65.12 916.4 74.72"/><polygon class="cls-3" points="916.4 74.72 878.97 65.12 853.15 71.7 845.34 76.76 878.86 93.81 916.4 74.72"/><polygon class="cls-3" points="878.86 104.27 836.3 82.62 827.26 88.48 858.31 104.27 878.86 104.27"/><polygon class="cls-2" points="878.86 104.27 858.31 104.27 820.77 123.36 794.25 109.87 785.21 115.73 820.77 133.81 878.86 104.27"/><polygon class="cls-4" points="858.31 104.27 827.26 88.48 815.66 96 820.87 94.67 858.31 104.27"/><polygon class="cls-3" points="858.31 104.27 820.87 94.67 815.66 96 794.25 109.87 820.77 123.36 858.31 104.27"/><polygon class="cls-3" points="725.13 133.81 762.67 114.72 800.21 133.81 820.77 133.81 785.21 115.73 778.05 120.37 756.96 107.17 704.57 133.81 725.13 133.81"/><polygon class="cls-2" points="800.21 133.81 762.67 152.91 725.13 133.81 704.57 133.81 762.67 163.36 820.77 133.81 800.21 133.81"/><polygon class="cls-4" points="800.21 133.81 762.67 114.72 725.13 133.81 762.78 124.21 800.21 133.81"/><polygon class="cls-3" points="800.21 133.81 762.78 124.21 725.13 133.81 762.67 152.91 800.21 133.81"/><polygon class="cls-3" points="646.48 163.36 667.03 163.36 704.57 144.27 742.12 163.36 762.67 163.36 704.57 133.81 646.48 163.36"/><polygon class="cls-2" points="646.48 163.36 662.38 171.44 682.93 171.44 667.03 163.36 646.48 163.36"/><polygon class="cls-2" points="742.12 163.36 726.22 171.44 746.77 171.44 762.67 163.36 742.12 163.36"/><polygon class="cls-4" points="667.03 163.36 704.68 153.76 742.12 163.36 704.57 144.27 667.03 163.36"/><polygon class="cls-3" points="704.68 153.76 667.03 163.36 682.93 171.44 726.22 171.44 742.12 163.36 704.68 153.76"/><polygon class="cls-3" points="630.58 171.44 662.38 171.44 646.48 163.36 630.58 171.44"/><polygon class="cls-3" points="1015.61 45.18 1023.42 41.2 1013.47 35.81 995.05 45.18 1015.61 45.18"/><polygon class="cls-2" points="1015.61 45.18 995.05 45.18 1053.15 74.72 1069.74 66.28 1059.79 60.89 1053.15 64.27 1015.61 45.18"/><polygon class="cls-4" points="1025.91 42.55 1023.42 41.2 1015.61 45.18 1025.91 42.55"/><polygon class="cls-3" points="1053.15 64.27 1059.79 60.89 1025.91 42.55 1015.61 45.18 1053.15 64.27"/><polygon class="cls-3" points="995.05 55.63 1032.59 74.72 1053.15 74.72 995.05 45.18 936.96 74.72 957.51 74.72 995.05 55.63"/><polygon class="cls-2" points="1053.15 74.72 1032.59 74.72 995.05 93.81 957.51 74.72 936.96 74.72 995.05 104.27 1053.15 74.72"/><polygon class="cls-4" points="957.51 74.72 995.16 65.12 1032.59 74.72 995.05 55.63 957.51 74.72"/><polygon class="cls-3" points="957.51 74.72 995.05 93.81 1032.59 74.72 995.16 65.12 957.51 74.72"/><polygon class="cls-3" points="936.96 85.18 974.5 104.27 995.05 104.27 936.96 74.72 878.86 104.27 899.42 104.27 936.96 85.18"/><polygon class="cls-2" points="995.05 104.27 974.5 104.27 936.96 123.36 899.42 104.27 878.86 104.27 936.96 133.81 995.05 104.27"/><polygon class="cls-4" points="899.42 104.27 937.06 94.67 974.5 104.27 936.96 85.18 899.42 104.27"/><polygon class="cls-3" points="899.42 104.27 936.96 123.36 974.5 104.27 937.06 94.67 899.42 104.27"/><polygon class="cls-3" points="878.86 114.72 916.4 133.81 936.96 133.81 878.86 104.27 820.77 133.81 841.32 133.81 878.86 114.72"/><polygon class="cls-2" points="916.4 133.81 878.86 152.91 841.32 133.81 820.77 133.81 878.86 163.36 936.96 133.81 916.4 133.81"/><polygon class="cls-4" points="841.32 133.81 878.97 124.21 916.4 133.81 878.86 114.72 841.32 133.81"/><polygon class="cls-3" points="841.32 133.81 878.86 152.91 916.4 133.81 878.97 124.21 841.32 133.81"/><polygon class="cls-3" points="762.67 163.36 783.22 163.36 820.77 144.27 858.31 163.36 878.86 163.36 820.77 133.81 762.67 163.36"/><polygon class="cls-2" points="858.31 163.36 842.41 171.44 862.96 171.44 878.86 163.36 858.31 163.36"/><polygon class="cls-2" points="762.67 163.36 778.57 171.44 799.12 171.44 783.22 163.36 762.67 163.36"/><polygon class="cls-4" points="783.22 163.36 820.87 153.76 858.31 163.36 820.77 144.27 783.22 163.36"/><polygon class="cls-3" points="820.87 153.76 783.22 163.36 799.12 171.44 842.41 171.44 858.31 163.36 820.87 153.76"/><polygon class="cls-3" points="746.77 171.44 778.57 171.44 762.67 163.36 746.77 171.44"/><polygon class="cls-2" points="1233.84 41.92 1205.58 27.91 1198.82 30.62 1227.44 45.18 1233.84 41.92"/><polygon class="cls-3" points="1227.44 45.18 1198.82 30.62 1187.31 35.22 1206.88 45.18 1227.44 45.18"/><polygon class="cls-2" points="1227.44 45.18 1206.88 45.18 1169.34 64.27 1145.28 52.03 1133.77 56.63 1169.34 74.72 1227.44 45.18"/><polygon class="cls-4" points="1187.31 35.22 1179.79 38.23 1206.88 45.18 1187.31 35.22"/><polygon class="cls-3" points="1206.88 45.18 1179.79 38.23 1145.28 52.03 1169.34 64.27 1206.88 45.18"/><polygon class="cls-3" points="1169.34 74.72 1133.77 56.63 1122.27 61.23 1148.79 74.72 1169.34 74.72"/><polygon class="cls-3" points="1073.7 74.72 1079.69 71.67 1069.74 66.28 1053.15 74.72 1073.7 74.72"/><polygon class="cls-2" points="1169.34 74.72 1148.79 74.72 1111.25 93.81 1073.7 74.72 1053.15 74.72 1111.25 104.27 1169.34 74.72"/><polygon class="cls-4" points="1122.27 61.23 1112.09 65.31 1148.79 74.72 1122.27 61.23"/><polygon class="cls-4" points="1081.6 72.7 1079.69 71.67 1073.7 74.72 1081.6 72.7"/><polygon class="cls-3" points="1111.25 93.81 1148.79 74.72 1112.09 65.31 1086.69 75.46 1081.6 72.7 1073.7 74.72 1111.25 93.81"/><polygon class="cls-3" points="1015.61 104.27 1053.15 85.18 1090.69 104.27 1111.25 104.27 1053.15 74.72 995.05 104.27 1015.61 104.27"/><polygon class="cls-2" points="1090.69 104.27 1053.15 123.36 1015.61 104.27 995.05 104.27 1053.15 133.81 1111.25 104.27 1090.69 104.27"/><polygon class="cls-4" points="1090.69 104.27 1053.15 85.18 1015.61 104.27 1053.26 94.67 1090.69 104.27"/><polygon class="cls-3" points="1090.69 104.27 1053.26 94.67 1015.61 104.27 1053.15 123.36 1090.69 104.27"/><polygon class="cls-3" points="936.96 133.81 957.51 133.81 995.05 114.72 1032.59 133.81 1053.15 133.81 995.05 104.27 936.96 133.81"/><polygon class="cls-2" points="1032.59 133.81 995.05 152.91 957.51 133.81 936.96 133.81 995.05 163.36 1053.15 133.81 1032.59 133.81"/><polygon class="cls-4" points="957.51 133.81 995.16 124.21 1032.59 133.81 995.05 114.72 957.51 133.81"/><polygon class="cls-3" points="957.51 133.81 995.05 152.91 1032.59 133.81 995.16 124.21 957.51 133.81"/><polygon class="cls-3" points="878.86 163.36 899.42 163.36 936.96 144.27 974.5 163.36 995.05 163.36 936.96 133.81 878.86 163.36"/><polygon class="cls-2" points="974.5 163.36 958.6 171.44 979.16 171.44 995.05 163.36 974.5 163.36"/><polygon class="cls-2" points="878.86 163.36 894.76 171.44 915.32 171.44 899.42 163.36 878.86 163.36"/><polygon class="cls-4" points="899.42 163.36 937.06 153.76 974.5 163.36 936.96 144.27 899.42 163.36"/><polygon class="cls-3" points="937.06 153.76 899.42 163.36 915.32 171.44 958.6 171.44 974.5 163.36 937.06 153.76"/><polygon class="cls-3" points="862.96 171.44 894.76 171.44 878.86 163.36 862.96 171.44"/><polygon class="cls-3" points="1240.4 45.18 1233.84 41.92 1227.44 45.18 1240.4 45.18"/><polygon class="cls-2" points="1285.53 74.72 1292.66 71.09 1240.4 45.18 1227.44 45.18 1285.53 74.72"/><polygon class="cls-3" points="1227.44 55.63 1264.98 74.72 1285.53 74.72 1227.44 45.18 1169.34 74.72 1189.9 74.72 1227.44 55.63"/><polygon class="cls-2" points="1285.53 74.72 1264.98 74.72 1227.44 93.81 1189.9 74.72 1169.34 74.72 1227.44 104.27 1285.53 74.72"/><polygon class="cls-4" points="1189.9 74.72 1227.55 65.12 1264.98 74.72 1227.44 55.63 1189.9 74.72"/><polygon class="cls-3" points="1189.9 74.72 1227.44 93.81 1264.98 74.72 1227.55 65.12 1189.9 74.72"/><polygon class="cls-3" points="1131.8 104.27 1169.34 85.18 1206.88 104.27 1227.44 104.27 1169.34 74.72 1111.25 104.27 1131.8 104.27"/><polygon class="cls-2" points="1206.88 104.27 1169.34 123.36 1131.8 104.27 1111.25 104.27 1169.34 133.81 1227.44 104.27 1206.88 104.27"/><polygon class="cls-4" points="1206.88 104.27 1169.34 85.18 1131.8 104.27 1169.45 94.67 1206.88 104.27"/><polygon class="cls-3" points="1206.88 104.27 1169.45 94.67 1131.8 104.27 1169.34 123.36 1206.88 104.27"/><polygon class="cls-3" points="1053.15 133.81 1073.7 133.81 1111.25 114.72 1148.79 133.81 1169.34 133.81 1111.25 104.27 1053.15 133.81"/><polygon class="cls-2" points="1148.79 133.81 1111.25 152.91 1073.7 133.81 1053.15 133.81 1111.25 163.36 1169.34 133.81 1148.79 133.81"/><polygon class="cls-4" points="1073.7 133.81 1111.35 124.21 1148.79 133.81 1111.25 114.72 1073.7 133.81"/><polygon class="cls-3" points="1073.7 133.81 1111.25 152.91 1148.79 133.81 1111.35 124.21 1073.7 133.81"/><polygon class="cls-3" points="995.05 163.36 1015.61 163.36 1053.15 144.27 1090.69 163.36 1111.25 163.36 1053.15 133.81 995.05 163.36"/><polygon class="cls-2" points="995.05 163.36 1010.95 171.44 1031.51 171.44 1015.61 163.36 995.05 163.36"/><polygon class="cls-2" points="1090.69 163.36 1074.79 171.44 1095.35 171.44 1111.25 163.36 1090.69 163.36"/><polygon class="cls-4" points="1015.61 163.36 1053.26 153.76 1090.69 163.36 1053.15 144.27 1015.61 163.36"/><polygon class="cls-3" points="1053.26 153.76 1015.61 163.36 1031.51 171.44 1074.79 171.44 1090.69 163.36 1053.26 153.76"/><polygon class="cls-3" points="979.16 171.44 1010.95 171.44 995.05 163.36 979.16 171.44"/><polygon class="cls-3" points="1299.98 74.72 1292.66 71.09 1285.53 74.72 1299.98 74.72"/><polygon class="cls-2" points="1343.63 104.27 1365.34 93.22 1355.11 87.97 1343.63 93.81 1307.83 75.6 1305.03 77.22 1299.98 74.72 1285.53 74.72 1343.63 104.27"/><polygon class="cls-4" points="1318.75 69.3 1311.96 73.22 1321.6 70.76 1318.75 69.3"/><polygon class="cls-3" points="1355.11 87.97 1321.6 70.76 1311.96 73.22 1307.83 75.6 1343.63 93.81 1355.11 87.97"/><polygon class="cls-3" points="1247.99 104.27 1285.53 85.18 1323.08 104.27 1343.63 104.27 1285.53 74.72 1227.44 104.27 1247.99 104.27"/><polygon class="cls-2" points="1285.53 123.36 1247.99 104.27 1227.44 104.27 1285.53 133.81 1343.63 104.27 1323.08 104.27 1285.53 123.36"/><polygon class="cls-4" points="1323.08 104.27 1285.53 85.18 1247.99 104.27 1285.64 94.67 1323.08 104.27"/><polygon class="cls-3" points="1323.08 104.27 1285.64 94.67 1247.99 104.27 1285.53 123.36 1323.08 104.27"/><polygon class="cls-3" points="1169.34 133.81 1189.9 133.81 1227.44 114.72 1264.98 133.81 1285.53 133.81 1227.44 104.27 1169.34 133.81"/><polygon class="cls-2" points="1264.98 133.81 1227.44 152.91 1189.9 133.81 1169.34 133.81 1227.44 163.36 1285.53 133.81 1264.98 133.81"/><polygon class="cls-4" points="1189.9 133.81 1227.55 124.21 1264.98 133.81 1227.44 114.72 1189.9 133.81"/><polygon class="cls-3" points="1189.9 133.81 1227.44 152.91 1264.98 133.81 1227.55 124.21 1189.9 133.81"/><polygon class="cls-3" points="1111.25 163.36 1131.8 163.36 1169.34 144.27 1206.88 163.36 1227.44 163.36 1169.34 133.81 1111.25 163.36"/><polygon class="cls-2" points="1111.25 163.36 1127.14 171.44 1147.7 171.44 1131.8 163.36 1111.25 163.36"/><polygon class="cls-2" points="1206.88 163.36 1190.99 171.44 1211.54 171.44 1227.44 163.36 1206.88 163.36"/><polygon class="cls-4" points="1131.8 163.36 1169.45 153.76 1206.88 163.36 1169.34 144.27 1131.8 163.36"/><polygon class="cls-3" points="1169.45 153.76 1131.8 163.36 1147.7 171.44 1190.99 171.44 1206.88 163.36 1169.45 153.76"/><polygon class="cls-3" points="1095.35 171.44 1127.14 171.44 1111.25 163.36 1095.35 171.44"/><polygon class="cls-2" points="1539.86 63.56 1528.83 58.72 1517.92 64.27 1513.54 62.04 1502.19 66.72 1517.92 74.72 1539.86 63.56"/><polygon class="cls-3" points="1528.83 58.72 1525.34 57.18 1513.54 62.04 1517.92 64.27 1528.83 58.72"/><polygon class="cls-3" points="1517.92 74.72 1502.19 66.72 1490.84 71.4 1497.36 74.72 1517.92 74.72"/><polygon class="cls-2" points="1517.92 74.72 1497.36 74.72 1459.82 93.81 1449.36 88.49 1438 93.17 1459.82 104.27 1517.92 74.72"/><polygon class="cls-4" points="1490.84 71.4 1488.38 72.41 1497.36 74.72 1490.84 71.4"/><polygon class="cls-3" points="1497.36 74.72 1488.38 72.41 1449.36 88.49 1459.82 93.81 1497.36 74.72"/><polygon class="cls-3" points="1459.82 104.27 1438 93.17 1426.64 97.85 1439.27 104.27 1459.82 104.27"/><polygon class="cls-3" points="1364.18 104.27 1375.57 98.48 1365.34 93.22 1343.63 104.27 1364.18 104.27"/><polygon class="cls-2" points="1459.82 104.27 1439.27 104.27 1401.72 123.36 1364.18 104.27 1343.63 104.27 1401.72 133.81 1459.82 104.27"/><polygon class="cls-4" points="1379.33 100.41 1375.57 98.48 1364.18 104.27 1379.33 100.41"/><polygon class="cls-4" points="1426.64 97.85 1421.88 99.81 1439.27 104.27 1426.64 97.85"/><polygon class="cls-3" points="1401.72 123.36 1439.27 104.27 1421.88 99.81 1397.63 109.8 1379.33 100.41 1364.18 104.27 1401.72 123.36"/><polygon class="cls-3" points="1306.09 133.81 1343.63 114.72 1381.17 133.81 1401.72 133.81 1343.63 104.27 1285.53 133.81 1306.09 133.81"/><polygon class="cls-2" points="1381.17 133.81 1343.63 152.91 1306.09 133.81 1285.53 133.81 1343.63 163.36 1401.72 133.81 1381.17 133.81"/><polygon class="cls-4" points="1306.09 133.81 1343.74 124.21 1381.17 133.81 1343.63 114.72 1306.09 133.81"/><polygon class="cls-3" points="1306.09 133.81 1343.63 152.91 1381.17 133.81 1343.74 124.21 1306.09 133.81"/><polygon class="cls-3" points="1227.44 163.36 1247.99 163.36 1285.53 144.27 1323.08 163.36 1343.63 163.36 1285.53 133.81 1227.44 163.36"/><polygon class="cls-2" points="1227.44 163.36 1243.34 171.44 1263.89 171.44 1247.99 163.36 1227.44 163.36"/><polygon class="cls-2" points="1323.08 163.36 1307.18 171.44 1327.73 171.44 1343.63 163.36 1323.08 163.36"/><polygon class="cls-4" points="1247.99 163.36 1285.64 153.76 1323.08 163.36 1285.53 144.27 1247.99 163.36"/><polygon class="cls-3" points="1285.64 153.76 1247.99 163.36 1263.89 171.44 1307.18 171.44 1323.08 163.36 1285.64 153.76"/><polygon class="cls-3" points="1211.54 171.44 1243.34 171.44 1227.44 163.36 1211.54 171.44"/><polygon class="cls-3" points="1538.47 74.72 1550.88 68.41 1539.86 63.56 1517.92 74.72 1538.47 74.72"/><polygon class="cls-2" points="1538.47 74.72 1517.92 74.72 1576.01 104.27 1602.2 90.95 1591.17 86.1 1576.01 93.81 1538.47 74.72"/><polygon class="cls-4" points="1555.42 70.4 1550.88 68.41 1538.47 74.72 1555.42 70.4"/><polygon class="cls-3" points="1576.01 93.81 1591.17 86.1 1555.42 70.4 1538.47 74.72 1576.01 93.81"/><polygon class="cls-3" points="1517.92 85.18 1555.46 104.27 1576.01 104.27 1517.92 74.72 1459.82 104.27 1480.38 104.27 1517.92 85.18"/><polygon class="cls-2" points="1576.01 104.27 1555.46 104.27 1517.92 123.36 1480.38 104.27 1459.82 104.27 1517.92 133.81 1576.01 104.27"/><polygon class="cls-4" points="1480.38 104.27 1518.02 94.67 1555.46 104.27 1517.92 85.18 1480.38 104.27"/><polygon class="cls-3" points="1480.38 104.27 1517.92 123.36 1555.46 104.27 1518.02 94.67 1480.38 104.27"/><polygon class="cls-3" points="1422.28 133.81 1459.82 114.72 1497.36 133.81 1517.92 133.81 1459.82 104.27 1401.72 133.81 1422.28 133.81"/><polygon class="cls-2" points="1497.36 133.81 1459.82 152.91 1422.28 133.81 1401.72 133.81 1459.82 163.36 1517.92 133.81 1497.36 133.81"/><polygon class="cls-4" points="1422.28 133.81 1459.93 124.21 1497.36 133.81 1459.82 114.72 1422.28 133.81"/><polygon class="cls-3" points="1422.28 133.81 1459.82 152.91 1497.36 133.81 1459.93 124.21 1422.28 133.81"/><polygon class="cls-3" points="1343.63 163.36 1364.18 163.36 1401.72 144.27 1439.27 163.36 1459.82 163.36 1401.72 133.81 1343.63 163.36"/><polygon class="cls-2" points="1439.27 163.36 1423.37 171.44 1443.92 171.44 1459.82 163.36 1439.27 163.36"/><polygon class="cls-2" points="1343.63 163.36 1359.53 171.44 1380.08 171.44 1364.18 163.36 1343.63 163.36"/><polygon class="cls-4" points="1364.18 163.36 1401.83 153.76 1439.27 163.36 1401.72 144.27 1364.18 163.36"/><polygon class="cls-3" points="1401.83 153.76 1364.18 163.36 1380.08 171.44 1423.37 171.44 1439.27 163.36 1401.83 153.76"/><polygon class="cls-3" points="1327.73 171.44 1359.53 171.44 1343.63 163.36 1327.73 171.44"/><polygon class="cls-3" points="1596.57 104.27 1613.23 95.8 1602.2 90.95 1576.01 104.27 1596.57 104.27"/><polygon class="cls-2" points="1596.57 104.27 1576.01 104.27 1634.11 133.81 1669.33 115.9 1654.88 112.8 1634.11 123.36 1596.57 104.27"/><polygon class="cls-4" points="1619.31 98.47 1613.23 95.8 1596.57 104.27 1619.31 98.47"/><polygon class="cls-3" points="1634.11 123.36 1654.88 112.8 1649.12 111.56 1619.31 98.47 1596.57 104.27 1634.11 123.36"/><polygon class="cls-3" points="1538.47 133.81 1576.01 114.72 1613.56 133.81 1634.11 133.81 1576.01 104.27 1517.92 133.81 1538.47 133.81"/><polygon class="cls-2" points="1613.56 133.81 1576.01 152.91 1538.47 133.81 1517.92 133.81 1576.01 163.36 1634.11 133.81 1613.56 133.81"/><polygon class="cls-4" points="1538.47 133.81 1576.12 124.21 1613.56 133.81 1576.01 114.72 1538.47 133.81"/><polygon class="cls-3" points="1538.47 133.81 1576.01 152.91 1613.56 133.81 1576.12 124.21 1538.47 133.81"/><polygon class="cls-3" points="1459.82 163.36 1480.38 163.36 1517.92 144.27 1555.46 163.36 1576.01 163.36 1517.92 133.81 1459.82 163.36"/><polygon class="cls-2" points="1555.46 163.36 1539.56 171.44 1560.12 171.44 1576.01 163.36 1555.46 163.36"/><polygon class="cls-2" points="1459.82 163.36 1475.72 171.44 1496.28 171.44 1480.38 163.36 1459.82 163.36"/><polygon class="cls-4" points="1480.38 163.36 1518.02 153.76 1555.46 163.36 1517.92 144.27 1480.38 163.36"/><polygon class="cls-3" points="1518.02 153.76 1480.38 163.36 1496.28 171.44 1539.56 171.44 1555.46 163.36 1518.02 153.76"/><polygon class="cls-3" points="1443.92 171.44 1475.72 171.44 1459.82 163.36 1443.92 171.44"/><polygon class="cls-2" points="1751.06 133.42 1748.43 132.86 1750.3 133.81 1751.06 133.42"/><polygon class="cls-3" points="1654.67 133.81 1683.79 119 1669.33 115.9 1634.11 133.81 1654.67 133.81"/><polygon class="cls-3" points="1750.3 133.81 1748.43 132.86 1712.9 125.24 1729.75 133.81 1750.3 133.81"/><polygon class="cls-2" points="1729.75 133.81 1692.2 152.91 1654.67 133.81 1634.11 133.81 1692.2 163.36 1750.3 133.81 1729.75 133.81"/><polygon class="cls-4" points="1692.31 124.21 1729.75 133.81 1712.9 125.24 1683.79 119 1654.67 133.81 1692.31 124.21"/><polygon class="cls-3" points="1729.75 133.81 1692.31 124.21 1654.67 133.81 1692.2 152.91 1729.75 133.81"/><polygon class="cls-3" points="1576.01 163.36 1596.57 163.36 1634.11 144.27 1671.66 163.36 1692.2 163.36 1634.11 133.81 1576.01 163.36"/><polygon class="cls-2" points="1576.01 163.36 1591.91 171.44 1612.47 171.44 1596.57 163.36 1576.01 163.36"/><polygon class="cls-2" points="1671.66 163.36 1655.76 171.44 1676.31 171.44 1692.2 163.36 1671.66 163.36"/><polygon class="cls-4" points="1596.57 163.36 1634.21 153.76 1671.66 163.36 1634.11 144.27 1596.57 163.36"/><polygon class="cls-3" points="1634.21 153.76 1596.57 163.36 1612.47 171.44 1655.76 171.44 1671.66 163.36 1634.21 153.76"/><polygon class="cls-3" points="1560.12 171.44 1591.91 171.44 1576.01 163.36 1560.12 171.44"/><polygon class="cls-3" points="1752.86 133.81 1751.06 133.42 1750.3 133.81 1752.86 133.81"/><polygon class="cls-2" points="1760 138.74 1760 135.34 1752.86 133.81 1750.3 133.81 1760 138.74"/><polygon class="cls-3" points="1692.2 163.36 1712.77 163.36 1750.3 144.27 1760 149.2 1760 138.74 1750.3 133.81 1692.2 163.36"/><polygon class="cls-2" points="1692.2 163.36 1708.1 171.44 1728.66 171.44 1712.77 163.36 1692.2 163.36"/><polygon class="cls-4" points="1712.77 163.36 1750.4 153.76 1760 156.22 1760 149.2 1750.3 144.27 1712.77 163.36"/><polygon class="cls-3" points="1712.77 163.36 1728.66 171.44 1760 171.44 1760 156.22 1750.4 153.76 1712.77 163.36"/><polygon class="cls-3" points="1692.2 163.36 1676.31 171.44 1708.1 171.44 1692.2 163.36"/><path class="cls-5" d="M778.05,120.37l-20.94,14.78s-26.9-28.94-26.9-30,15,6.81,15,6.81L706.43,75.56Z"/><polygon class="cls-5" points="686.6 83.39 668.94 92.25 666.55 81.7 656.34 66.38 647.73 52.57 686.6 83.39"/><polygon class="cls-5" points="636.3 59.61 625.87 64.68 610 37.6 636.3 59.61"/><polygon class="cls-5" points="477.4 99.24 473.19 102.47 457.36 102.47 441.02 105.35 441.02 99.24 432.34 92.25 429.28 86.47 394.55 72.41 394.55 64.68 371.09 37.6 477.4 99.24"/><polygon class="cls-5" points="340.22 47.28 318.98 61.62 309.45 57.19 300.25 61.62 293.79 44.26 299.23 32.68 284.94 0 340.22 47.28"/><polygon class="cls-5" points="148.18 100.12 153.79 105.35 143.83 112.17 142.3 123.4 132.09 117.02 130.81 105.35 130.81 94.3 128.74 86.03 148.18 100.12"/><polygon class="cls-5" points="940.37 36.72 937.87 41.7 937.87 62.13 916.43 36.72 922.08 27.03 940.37 36.72"/><path class="cls-5" d="M1086.69,75.46s-36,14.75-35.46,13.22S982.3,52.57,982.3,52.57l2-13.42-13.1-26.21Z"/><polygon class="cls-5" points="1305.03 77.22 1297.02 86.47 1269.79 81.84 1255.83 88.79 1241.87 84.77 1212.26 53.11 1212.26 41.53 1205.58 27.91 1305.03 77.22"/><path class="cls-5" d="M1397.63,109.8l-11.93,21.26s-37.27-19.54-37.27-21.26-2-7.33-2-7.33l-7.66-7.15-20-26Z"/><polygon class="cls-5" points="1649.12 111.56 1621.62 131.06 1589.45 107.06 1587.4 100.18 1576.17 94.3 1547.06 75.4 1547.06 69.3 1525.34 57.18 1649.12 111.56"/><polygon class="cls-5" points="1760 135.34 1760 159.15 1684.64 119.18 1760 135.34"/></g></g></svg>