<svg xmlns="http://www.w3.org/2000/svg" viewBox="0 0 22.27 20.17"><defs><style>.cls-1{fill:#d0333a;}.cls-2{fill:#13216a;}.cls-3{fill:#daa900;}.cls-4{fill:#60a511;}</style></defs><title>Recurso 5</title><g id="Capa_2" data-name="Capa 2"><g id="Capa_1-2" data-name="Capa 1"><path class="cls-1" d="M8,3A9.4,9.4,0,0,0,5.69,4.45a9.88,9.88,0,0,0-1.77,2,8.32,8.32,0,0,0-.68,1.21c0,.09-.16.38-.29.78s-.15.57-.2.75-.07.35-.1.54,0,.3,0,.56,0,.37,0,.66,0,.34,0,.51,0,.27.07.51,0,.22.06.38c.07.36.1.42.15.65a.53.53,0,0,0,0,.19s0,.06,0,.1a.28.28,0,0,1,0,.14c-.08.24-.23.38-.19.56h0s0,.09.37.72a3.19,3.19,0,0,0,.33.61,2.74,2.74,0,0,1,.3.41l.11.18L4,16a.9.9,0,0,1,.08.25,1.79,1.79,0,0,1,0,.39c-.05.3-.21.32-.26.58a.5.5,0,0,1-.09.22l-.09.08-.19.13a1.92,1.92,0,0,1-.29.15l-.21.07-.28,0a1.55,1.55,0,0,1-.22,0h-.1a.82.82,0,0,1-.21,0l-.19-.05-.17-.06-.16-.09-.14-.1a.48.48,0,0,1-.11-.09.71.71,0,0,1-.11-.12l-.13-.14A.73.73,0,0,1,1,17.09l-.18-.28-.14-.28c0-.1-.11-.25-.18-.44s-.06-.17-.11-.33a10,10,0,0,1-.21-1c0-.3-.08-.52-.1-.69,0-.32-.08-.7-.09-1.2s0-.78,0-1c.05-.6.12-1.07.16-1.33a9.93,9.93,0,0,1,.49-2,8.17,8.17,0,0,1,.41-1,5.45,5.45,0,0,1,.4-.74l.29-.4c.12-.17.25-.35.43-.57s.24-.29.47-.54a8.25,8.25,0,0,1,.73-.73l.42-.35.47-.36a8.81,8.81,0,0,1,1.11-.69c.2-.11.36-.18.57-.28s.4-.18.64-.27.37-.14.7-.23L8,2.28c.47-.09,1-.18,1.29-.21a11.43,11.43,0,0,1,2.89.17,5.72,5.72,0,0,0-1,0,6.24,6.24,0,0,0-1.25.21A11.29,11.29,0,0,0,8,3Z"/><path class="cls-2" d="M19.33,15.6a8.36,8.36,0,0,1-2.95,2.23,9.25,9.25,0,0,1-3.82.86A9.11,9.11,0,0,1,10,18.36a8.25,8.25,0,0,1-2.08-.87c-.11-.07-.53-.36-.69-.45l-.15-.1L7,16.84l-.23-.2c-.19-.19-.35-.29-.55-.48s-.21-.22-.49-.53-.5-.54-.58-.65a5.22,5.22,0,0,1-.46-.63l-.3-.44-.15-.19a2.08,2.08,0,0,0-.28-.24,1.51,1.51,0,0,0-.4-.17A1.49,1.49,0,0,0,3,13.25a1.29,1.29,0,0,0-.36.07,1.39,1.39,0,0,0-.28.12,1.09,1.09,0,0,0-.22.16L2,13.7a1.32,1.32,0,0,0-.23.29,1.66,1.66,0,0,0-.11.24,1.17,1.17,0,0,0,0,.15.59.59,0,0,0,0,.17,1.36,1.36,0,0,0,0,.35,1.62,1.62,0,0,0,.06.22,2,2,0,0,0,.08.2l.07.12.06.11,0,0c.19.28.37.51.37.51a8.34,8.34,0,0,0,2,1.72,13.57,13.57,0,0,0,3.34,1.7,10.93,10.93,0,0,0,2.78.62A10.76,10.76,0,0,0,13.2,20a9.13,9.13,0,0,0,3.17-1.15A8.67,8.67,0,0,0,19,16.46,9,9,0,0,0,19.74,15,5.06,5.06,0,0,1,19.33,15.6Z"/><path class="cls-3" d="M10.7,18.05a9.19,9.19,0,0,0,2.46-.38,8.36,8.36,0,0,0,2.34-1.18,9.15,9.15,0,0,0,1.7-1.69,6.25,6.25,0,0,0,.51-.82c.06-.1.15-.3.32-.69a2.2,2.2,0,0,0,.17-.44,4.29,4.29,0,0,0,.11-.47,2.8,2.8,0,0,0,.1-.41,2,2,0,0,0,0-.36c0-.28,0-.32,0-.4a6.39,6.39,0,0,0,0-.85,8.09,8.09,0,0,0-.09-.82c0-.06-.05-.3-.15-.79a3.63,3.63,0,0,0-.17-.69,4.32,4.32,0,0,1-.18-.47s0-.1-.05-.2,0-.11-.06-.16a.78.78,0,0,1,0-.26,1.27,1.27,0,0,1,.74-1,1.3,1.3,0,0,1,.31-.11,1.17,1.17,0,0,1,.22,0,1.05,1.05,0,0,1,.32,0,1.3,1.3,0,0,1,.23.06.69.69,0,0,1,.23.09,1.15,1.15,0,0,1,.19.12,1.59,1.59,0,0,1,.19.16l.12.14a.93.93,0,0,1,.12.18l.05.1.06.12,0,.1c0,.06,0,.1.05.12a1.68,1.68,0,0,0,.08.25,1.84,1.84,0,0,1,.05.25,1.89,1.89,0,0,1,0,.23,10,10,0,0,1,.1,1,11.16,11.16,0,0,1-.05,1.2,11.82,11.82,0,0,1-.51,2.45,9.19,9.19,0,0,1-.5,1.23A7.1,7.1,0,0,1,19,15.08a9,9,0,0,1-.85.87,9.21,9.21,0,0,1-.73.6c-.21.15-.49.37-.89.61a7.85,7.85,0,0,1-1.25.62,8.51,8.51,0,0,1-1.38.39,12.72,12.72,0,0,1-1.3.18,8.83,8.83,0,0,1-1.72-.08A8.64,8.64,0,0,1,9.48,18l.59.06Z"/><path class="cls-4" d="M4,3.33A11.51,11.51,0,0,1,7.19,2a11.73,11.73,0,0,1,2.26-.28A11.48,11.48,0,0,1,11,1.73a10.18,10.18,0,0,1,1.9.39c.32.11.57.21,1,.39a4.76,4.76,0,0,1,.73.33c.23.13.18.12.66.43a5.27,5.27,0,0,1,.74.5l.3.27c.14.13.17.17.26.24l.25.21.23.22.19.21.3.34c.31.36.33.36.46.52s.15.25.23.32c.31.28.56.11.76.35l.25.45a1.62,1.62,0,0,0,.13.19,1.9,1.9,0,0,0,.26.26,1.93,1.93,0,0,0,.39.23c.33.14.44,0,.59.16s.11.28.25.32.14,0,.31-.07a1.61,1.61,0,0,0,.34-.17l.11-.08a.83.83,0,0,0,.17-.15A1.41,1.41,0,0,0,22,7.36c.06-.09.1-.13.12-.17A1.7,1.7,0,0,0,22.21,7a1,1,0,0,0,.05-.21c0-.06,0,0,0-.21V6.34l0-.15,0-.15a.66.66,0,0,0,0-.1.43.43,0,0,0-.05-.12s0-.1-.06-.17l-.11-.18-.11-.19A11,11,0,0,0,20,3.37a13.43,13.43,0,0,0-1.74-1.2,15.85,15.85,0,0,0-1.65-.89A14.18,14.18,0,0,0,14.83.55c-.57-.18-1-.28-1.11-.3A11.69,11.69,0,0,0,10.79,0,11.92,11.92,0,0,0,7.28.64c-.5.17-.89.35-1,.42A10.29,10.29,0,0,0,4.44,2.12,11.45,11.45,0,0,0,2.81,3.65a8.47,8.47,0,0,0-.77,1,8.1,8.1,0,0,0-.54,1,4.38,4.38,0,0,1,.44-.62l.36-.39c.28-.28.5-.48.59-.55A10.45,10.45,0,0,1,4,3.33Z"/></g></g></svg>